<mxfile host="Electron" agent="Mozilla/5.0 (Windows NT 10.0; Win64; x64) AppleWebKit/537.36 (KHTML, like Gecko) draw.io/24.7.17 Chrome/128.0.6613.36 Electron/32.0.1 Safari/537.36" version="24.7.17">
  <diagram name="Страница — 1" id="dGyKo30YHlpizkumSqCY">
    <mxGraphModel dx="1434" dy="1671" grid="1" gridSize="10" guides="1" tooltips="1" connect="1" arrows="1" fold="1" page="1" pageScale="1" pageWidth="1169" pageHeight="827" math="0" shadow="0">
      <root>
        <mxCell id="0" />
        <mxCell id="1" parent="0" />
        <mxCell id="ZdthaMtyNPpBsi2oZ3e5-52" value="" style="rounded=1;whiteSpace=wrap;html=1;shadow=1;arcSize=13;labelBackgroundColor=none;movable=0;resizable=0;rotatable=0;deletable=0;editable=0;locked=1;connectable=0;" vertex="1" parent="1">
          <mxGeometry x="320" y="100" width="200" height="360" as="geometry" />
        </mxCell>
        <mxCell id="ZdthaMtyNPpBsi2oZ3e5-1" value="" style="rounded=1;whiteSpace=wrap;html=1;shadow=1;arcSize=13;labelBackgroundColor=none;movable=0;resizable=0;rotatable=0;deletable=0;editable=0;locked=1;connectable=0;" vertex="1" parent="1">
          <mxGeometry x="50" y="100" width="200" height="360" as="geometry" />
        </mxCell>
        <mxCell id="ZdthaMtyNPpBsi2oZ3e5-4" value="" style="endArrow=none;html=1;rounded=0;entryX=1.005;entryY=0.942;entryDx=0;entryDy=0;entryPerimeter=0;exitX=0;exitY=0.944;exitDx=0;exitDy=0;exitPerimeter=0;labelBackgroundColor=none;fontColor=default;" edge="1" parent="1" source="ZdthaMtyNPpBsi2oZ3e5-1" target="ZdthaMtyNPpBsi2oZ3e5-1">
          <mxGeometry width="50" height="50" relative="1" as="geometry">
            <mxPoint x="90" y="450" as="sourcePoint" />
            <mxPoint x="140" y="400" as="targetPoint" />
            <Array as="points" />
          </mxGeometry>
        </mxCell>
        <mxCell id="ZdthaMtyNPpBsi2oZ3e5-5" value="" style="endArrow=none;html=1;rounded=0;entryX=0.995;entryY=0.833;entryDx=0;entryDy=0;entryPerimeter=0;labelBackgroundColor=none;fontColor=default;" edge="1" parent="1" target="ZdthaMtyNPpBsi2oZ3e5-1">
          <mxGeometry width="50" height="50" relative="1" as="geometry">
            <mxPoint x="51" y="400" as="sourcePoint" />
            <mxPoint x="140" y="380" as="targetPoint" />
          </mxGeometry>
        </mxCell>
        <mxCell id="ZdthaMtyNPpBsi2oZ3e5-7" style="edgeStyle=orthogonalEdgeStyle;rounded=0;orthogonalLoop=1;jettySize=auto;html=1;exitX=0.1;exitY=0.5;exitDx=0;exitDy=0;exitPerimeter=0;entryX=0.1;entryY=0.5;entryDx=0;entryDy=0;entryPerimeter=0;labelBackgroundColor=none;fontColor=default;" edge="1" parent="1">
          <mxGeometry relative="1" as="geometry">
            <mxPoint x="421" y="425" as="targetPoint" />
            <mxPoint x="421" y="425" as="sourcePoint" />
          </mxGeometry>
        </mxCell>
        <mxCell id="ZdthaMtyNPpBsi2oZ3e5-12" style="edgeStyle=orthogonalEdgeStyle;rounded=0;orthogonalLoop=1;jettySize=auto;html=1;exitX=0.5;exitY=0.115;exitDx=0;exitDy=0;exitPerimeter=0;entryX=0.5;entryY=0.115;entryDx=0;entryDy=0;entryPerimeter=0;labelBackgroundColor=none;fontColor=default;" edge="1" parent="1" source="ZdthaMtyNPpBsi2oZ3e5-11" target="ZdthaMtyNPpBsi2oZ3e5-11">
          <mxGeometry relative="1" as="geometry">
            <mxPoint x="460" y="390" as="targetPoint" />
          </mxGeometry>
        </mxCell>
        <mxCell id="ZdthaMtyNPpBsi2oZ3e5-11" value="" style="verticalLabelPosition=bottom;verticalAlign=top;html=1;shape=mxgraph.basic.heart;shadow=1;labelBackgroundColor=none;" vertex="1" parent="1">
          <mxGeometry x="100" y="410" width="20" height="20" as="geometry" />
        </mxCell>
        <mxCell id="ZdthaMtyNPpBsi2oZ3e5-13" value="" style="shape=actor;whiteSpace=wrap;html=1;shadow=1;labelBackgroundColor=none;" vertex="1" parent="1">
          <mxGeometry x="180" y="410" width="20" height="20" as="geometry" />
        </mxCell>
        <mxCell id="ZdthaMtyNPpBsi2oZ3e5-15" value="" style="html=1;shape=mxgraph.basic.isocube;isoAngle=15;shadow=1;labelBackgroundColor=none;" vertex="1" parent="1">
          <mxGeometry x="220" y="410" width="20" height="20" as="geometry" />
        </mxCell>
        <mxCell id="ZdthaMtyNPpBsi2oZ3e5-16" value="" style="verticalLabelPosition=bottom;verticalAlign=top;html=1;shape=mxgraph.flowchart.or;shadow=1;labelBackgroundColor=none;" vertex="1" parent="1">
          <mxGeometry x="139.5" y="410" width="21" height="20" as="geometry" />
        </mxCell>
        <mxCell id="ZdthaMtyNPpBsi2oZ3e5-17" value="" style="ellipse;whiteSpace=wrap;html=1;aspect=fixed;strokeWidth=2;perimeterSpacing=1;shadow=1;labelBackgroundColor=none;fillColor=#d5e8d4;strokeColor=#82b366;gradientColor=#97d077;" vertex="1" parent="1">
          <mxGeometry x="60" y="410" width="10" height="10" as="geometry" />
        </mxCell>
        <mxCell id="ZdthaMtyNPpBsi2oZ3e5-20" value="" style="endArrow=none;html=1;rounded=0;shadow=1;endSize=7;startSize=7;jumpSize=7;labelBackgroundColor=none;fontColor=default;fillColor=#60a917;strokeColor=#2D7600;" edge="1" parent="1">
          <mxGeometry width="50" height="50" relative="1" as="geometry">
            <mxPoint x="70" y="420" as="sourcePoint" />
            <mxPoint x="80" y="430" as="targetPoint" />
          </mxGeometry>
        </mxCell>
        <mxCell id="ZdthaMtyNPpBsi2oZ3e5-24" value="" style="endArrow=none;html=1;rounded=0;exitX=-0.005;exitY=0.053;exitDx=0;exitDy=0;exitPerimeter=0;labelBackgroundColor=none;fontColor=default;" edge="1" parent="1" source="ZdthaMtyNPpBsi2oZ3e5-1">
          <mxGeometry width="50" height="50" relative="1" as="geometry">
            <mxPoint x="89.5" y="180" as="sourcePoint" />
            <mxPoint x="246" y="119" as="targetPoint" />
          </mxGeometry>
        </mxCell>
        <mxCell id="ZdthaMtyNPpBsi2oZ3e5-25" value="" style="rounded=0;whiteSpace=wrap;html=1;fillColor=#cdeb8b;strokeColor=#36393d;" vertex="1" parent="1">
          <mxGeometry x="50" y="120" width="200" height="50" as="geometry" />
        </mxCell>
        <mxCell id="ZdthaMtyNPpBsi2oZ3e5-28" value="&lt;h2&gt;Уход за лицом&lt;/h2&gt;" style="text;strokeColor=none;align=center;fillColor=none;html=1;verticalAlign=middle;whiteSpace=wrap;rounded=0;" vertex="1" parent="1">
          <mxGeometry x="50" y="140" width="150" height="30" as="geometry" />
        </mxCell>
        <mxCell id="ZdthaMtyNPpBsi2oZ3e5-29" value="" style="shape=partialRectangle;whiteSpace=wrap;html=1;left=0;right=0;fillColor=none;" vertex="1" parent="1">
          <mxGeometry x="60" y="180" width="20" height="10" as="geometry" />
        </mxCell>
        <mxCell id="ZdthaMtyNPpBsi2oZ3e5-30" value="" style="shape=waypoint;sketch=0;fillStyle=solid;size=6;pointerEvents=1;points=[];fillColor=none;resizable=0;rotatable=0;perimeter=centerPerimeter;snapToPoint=1;" vertex="1" parent="1">
          <mxGeometry x="70" y="170" width="20" height="20" as="geometry" />
        </mxCell>
        <mxCell id="ZdthaMtyNPpBsi2oZ3e5-31" value="" style="shape=waypoint;sketch=0;fillStyle=solid;size=6;pointerEvents=1;points=[];fillColor=none;resizable=0;rotatable=0;perimeter=centerPerimeter;snapToPoint=1;" vertex="1" parent="1">
          <mxGeometry x="55" y="180" width="20" height="20" as="geometry" />
        </mxCell>
        <mxCell id="ZdthaMtyNPpBsi2oZ3e5-36" value="7 942 продукта" style="text;strokeColor=none;align=center;fillColor=none;html=1;verticalAlign=middle;whiteSpace=wrap;rounded=0;fontFamily=Helvetica;fontSize=12;fontColor=default;labelBackgroundColor=none;" vertex="1" parent="1">
          <mxGeometry x="110" y="170" width="90" height="30" as="geometry" />
        </mxCell>
        <mxCell id="ZdthaMtyNPpBsi2oZ3e5-37" value="Лосьон" style="label;whiteSpace=wrap;html=1;align=center;verticalAlign=bottom;spacingLeft=0;spacingBottom=4;imageAlign=center;imageVerticalAlign=top;image=img/clipart/Gear_128x128.png;rounded=1;shadow=1;strokeColor=default;arcSize=13;fontFamily=Helvetica;fontSize=12;fontColor=default;labelBackgroundColor=none;fillColor=default;" vertex="1" parent="1">
          <mxGeometry x="59.5" y="220" width="80" height="70" as="geometry" />
        </mxCell>
        <mxCell id="ZdthaMtyNPpBsi2oZ3e5-38" value="Крем" style="label;whiteSpace=wrap;html=1;align=center;verticalAlign=bottom;spacingLeft=0;spacingBottom=4;imageAlign=center;imageVerticalAlign=top;image=img/clipart/Gear_128x128.png;rounded=1;shadow=1;strokeColor=default;arcSize=13;fontFamily=Helvetica;fontSize=12;fontColor=default;labelBackgroundColor=none;fillColor=default;" vertex="1" parent="1">
          <mxGeometry x="160" y="220" width="80" height="70" as="geometry" />
        </mxCell>
        <mxCell id="ZdthaMtyNPpBsi2oZ3e5-39" value="Тоник" style="label;whiteSpace=wrap;html=1;align=center;verticalAlign=bottom;spacingLeft=0;spacingBottom=4;imageAlign=center;imageVerticalAlign=top;image=img/clipart/Gear_128x128.png;rounded=1;shadow=1;strokeColor=default;arcSize=13;fontFamily=Helvetica;fontSize=12;fontColor=default;labelBackgroundColor=none;fillColor=default;" vertex="1" parent="1">
          <mxGeometry x="60" y="310" width="80" height="70" as="geometry" />
        </mxCell>
        <mxCell id="ZdthaMtyNPpBsi2oZ3e5-40" value="Маска" style="label;whiteSpace=wrap;html=1;align=center;verticalAlign=bottom;spacingLeft=0;spacingBottom=4;imageAlign=center;imageVerticalAlign=top;image=img/clipart/Gear_128x128.png;rounded=1;shadow=1;strokeColor=default;arcSize=13;fontFamily=Helvetica;fontSize=12;fontColor=default;labelBackgroundColor=none;fillColor=default;" vertex="1" parent="1">
          <mxGeometry x="160" y="310" width="80" height="70" as="geometry" />
        </mxCell>
        <mxCell id="ZdthaMtyNPpBsi2oZ3e5-42" value="" style="endArrow=none;html=1;rounded=0;entryX=1.005;entryY=0.942;entryDx=0;entryDy=0;entryPerimeter=0;exitX=0;exitY=0.944;exitDx=0;exitDy=0;exitPerimeter=0;labelBackgroundColor=none;fontColor=default;" edge="1" parent="1">
          <mxGeometry width="50" height="50" relative="1" as="geometry">
            <mxPoint x="320" y="441" as="sourcePoint" />
            <mxPoint x="521" y="440" as="targetPoint" />
            <Array as="points" />
          </mxGeometry>
        </mxCell>
        <mxCell id="ZdthaMtyNPpBsi2oZ3e5-51" value="" style="endArrow=none;html=1;rounded=0;entryX=0.995;entryY=0.833;entryDx=0;entryDy=0;entryPerimeter=0;labelBackgroundColor=none;fontColor=default;" edge="1" parent="1">
          <mxGeometry width="50" height="50" relative="1" as="geometry">
            <mxPoint x="320" y="120" as="sourcePoint" />
            <mxPoint x="518" y="120" as="targetPoint" />
          </mxGeometry>
        </mxCell>
        <mxCell id="ZdthaMtyNPpBsi2oZ3e5-53" value="адрес доставки&lt;div&gt;&lt;b&gt;&lt;font style=&quot;font-size: 13px;&quot;&gt;Москва&lt;/font&gt;&lt;/b&gt;&lt;/div&gt;" style="text;strokeColor=none;align=left;fillColor=none;html=1;verticalAlign=middle;whiteSpace=wrap;rounded=0;fontFamily=Helvetica;fontSize=12;fontColor=default;labelBackgroundColor=none;" vertex="1" parent="1">
          <mxGeometry x="330" y="130" width="100" height="30" as="geometry" />
        </mxCell>
        <mxCell id="ZdthaMtyNPpBsi2oZ3e5-54" value="&lt;font style=&quot;font-size: 12px;&quot;&gt;&lt;b&gt;&lt;font style=&quot;font-size: 12px;&quot;&gt;сортировать&lt;/font&gt;&lt;/b&gt; по популярности&lt;/font&gt;" style="text;strokeColor=none;align=center;fillColor=none;html=1;verticalAlign=middle;whiteSpace=wrap;rounded=0;fontFamily=Helvetica;fontSize=12;fontColor=default;labelBackgroundColor=none;" vertex="1" parent="1">
          <mxGeometry x="299" y="165" width="230" height="30" as="geometry" />
        </mxCell>
        <mxCell id="ZdthaMtyNPpBsi2oZ3e5-56" value="" style="endArrow=none;html=1;rounded=0;fontFamily=Helvetica;fontSize=12;fontColor=default;labelBackgroundColor=none;" edge="1" parent="1">
          <mxGeometry width="50" height="50" relative="1" as="geometry">
            <mxPoint x="500" y="170" as="sourcePoint" />
            <mxPoint x="500" y="190" as="targetPoint" />
            <Array as="points">
              <mxPoint x="510" y="180" />
            </Array>
          </mxGeometry>
        </mxCell>
        <mxCell id="ZdthaMtyNPpBsi2oZ3e5-57" value="" style="endArrow=none;html=1;rounded=0;fontFamily=Helvetica;fontSize=12;fontColor=default;labelBackgroundColor=none;strokeWidth=3;" edge="1" parent="1">
          <mxGeometry width="50" height="50" relative="1" as="geometry">
            <mxPoint x="483" y="249.5" as="sourcePoint" />
            <mxPoint x="344" y="249.5" as="targetPoint" />
          </mxGeometry>
        </mxCell>
        <mxCell id="ZdthaMtyNPpBsi2oZ3e5-58" value="" style="ellipse;whiteSpace=wrap;html=1;aspect=fixed;rounded=1;shadow=1;strokeColor=default;align=center;verticalAlign=middle;arcSize=13;fontFamily=Helvetica;fontSize=12;fontColor=default;labelBackgroundColor=none;fillColor=default;" vertex="1" parent="1">
          <mxGeometry x="330" y="240" width="20" height="20" as="geometry" />
        </mxCell>
        <mxCell id="ZdthaMtyNPpBsi2oZ3e5-59" value="" style="ellipse;whiteSpace=wrap;html=1;aspect=fixed;rounded=1;shadow=1;strokeColor=default;align=center;verticalAlign=middle;arcSize=13;fontFamily=Helvetica;fontSize=12;fontColor=default;labelBackgroundColor=none;fillColor=default;" vertex="1" parent="1">
          <mxGeometry x="480" y="240" width="20" height="20" as="geometry" />
        </mxCell>
        <mxCell id="ZdthaMtyNPpBsi2oZ3e5-60" value="от 15 р" style="text;strokeColor=none;align=center;fillColor=none;html=1;verticalAlign=middle;whiteSpace=wrap;rounded=0;fontFamily=Helvetica;fontSize=12;fontColor=default;labelBackgroundColor=none;" vertex="1" parent="1">
          <mxGeometry x="320" y="210" width="60" height="30" as="geometry" />
        </mxCell>
        <mxCell id="ZdthaMtyNPpBsi2oZ3e5-61" value="до 127 521 р" style="text;strokeColor=none;align=center;fillColor=none;html=1;verticalAlign=middle;whiteSpace=wrap;rounded=0;fontFamily=Helvetica;fontSize=12;fontColor=default;labelBackgroundColor=none;" vertex="1" parent="1">
          <mxGeometry x="440" y="210" width="80" height="30" as="geometry" />
        </mxCell>
        <mxCell id="ZdthaMtyNPpBsi2oZ3e5-62" value="бренд" style="text;strokeColor=none;align=center;fillColor=none;html=1;verticalAlign=middle;whiteSpace=wrap;rounded=0;fontFamily=Helvetica;fontSize=12;fontColor=default;labelBackgroundColor=none;" vertex="1" parent="1">
          <mxGeometry x="330" y="290" width="40" height="30" as="geometry" />
        </mxCell>
        <mxCell id="ZdthaMtyNPpBsi2oZ3e5-63" value="ингридиент" style="text;strokeColor=none;align=center;fillColor=none;html=1;verticalAlign=middle;whiteSpace=wrap;rounded=0;fontFamily=Helvetica;fontSize=12;fontColor=default;labelBackgroundColor=none;" vertex="1" parent="1">
          <mxGeometry x="334" y="320" width="60" height="30" as="geometry" />
        </mxCell>
        <mxCell id="ZdthaMtyNPpBsi2oZ3e5-64" value="тип продукта" style="text;strokeColor=none;align=center;fillColor=none;html=1;verticalAlign=middle;whiteSpace=wrap;rounded=0;fontFamily=Helvetica;fontSize=12;fontColor=default;labelBackgroundColor=none;" vertex="1" parent="1">
          <mxGeometry x="330" y="350" width="80" height="30" as="geometry" />
        </mxCell>
        <mxCell id="ZdthaMtyNPpBsi2oZ3e5-65" value="для кого" style="text;strokeColor=none;align=center;fillColor=none;html=1;verticalAlign=middle;whiteSpace=wrap;rounded=0;fontFamily=Helvetica;fontSize=12;fontColor=default;labelBackgroundColor=none;" vertex="1" parent="1">
          <mxGeometry x="330" y="380" width="50" height="30" as="geometry" />
        </mxCell>
        <mxCell id="ZdthaMtyNPpBsi2oZ3e5-66" value="" style="verticalLabelPosition=bottom;verticalAlign=top;html=1;shape=mxgraph.basic.patternFillRect;fillStyle=diag;step=5;fillStrokeWidth=0.2;fillStrokeColor=#dddddd;rounded=1;shadow=1;strokeColor=#36393d;align=center;arcSize=13;fontFamily=Helvetica;fontSize=12;labelBackgroundColor=none;fillColor=#eeeeee;" vertex="1" parent="1">
          <mxGeometry x="350" y="407.5" width="136" height="25" as="geometry" />
        </mxCell>
        <mxCell id="ZdthaMtyNPpBsi2oZ3e5-67" value="&lt;font style=&quot;font-size: 11px;&quot;&gt;&lt;b&gt;показать 7942 продукта&lt;/b&gt;&lt;/font&gt;" style="text;strokeColor=none;align=center;fillColor=none;html=1;verticalAlign=middle;whiteSpace=wrap;rounded=0;fontFamily=Helvetica;fontSize=12;fontColor=default;labelBackgroundColor=none;strokeWidth=1;" vertex="1" parent="1">
          <mxGeometry x="348" y="405" width="140" height="30" as="geometry" />
        </mxCell>
        <mxCell id="ZdthaMtyNPpBsi2oZ3e5-69" value="" style="endArrow=none;html=1;rounded=0;fontFamily=Helvetica;fontSize=12;fontColor=default;labelBackgroundColor=none;" edge="1" parent="1">
          <mxGeometry width="50" height="50" relative="1" as="geometry">
            <mxPoint x="500" y="355" as="sourcePoint" />
            <mxPoint x="500" y="375" as="targetPoint" />
            <Array as="points">
              <mxPoint x="510" y="365" />
            </Array>
          </mxGeometry>
        </mxCell>
        <mxCell id="ZdthaMtyNPpBsi2oZ3e5-70" value="" style="endArrow=none;html=1;rounded=0;fontFamily=Helvetica;fontSize=12;fontColor=default;labelBackgroundColor=none;" edge="1" parent="1">
          <mxGeometry width="50" height="50" relative="1" as="geometry">
            <mxPoint x="500" y="290" as="sourcePoint" />
            <mxPoint x="500" y="310" as="targetPoint" />
            <Array as="points">
              <mxPoint x="510" y="300" />
            </Array>
          </mxGeometry>
        </mxCell>
        <mxCell id="ZdthaMtyNPpBsi2oZ3e5-71" value="" style="endArrow=none;html=1;rounded=0;fontFamily=Helvetica;fontSize=12;fontColor=default;labelBackgroundColor=none;" edge="1" parent="1">
          <mxGeometry width="50" height="50" relative="1" as="geometry">
            <mxPoint x="500" y="320" as="sourcePoint" />
            <mxPoint x="500" y="340" as="targetPoint" />
            <Array as="points">
              <mxPoint x="510" y="330" />
            </Array>
          </mxGeometry>
        </mxCell>
        <mxCell id="ZdthaMtyNPpBsi2oZ3e5-72" value="" style="endArrow=none;html=1;rounded=0;fontFamily=Helvetica;fontSize=12;fontColor=default;labelBackgroundColor=none;" edge="1" parent="1">
          <mxGeometry width="50" height="50" relative="1" as="geometry">
            <mxPoint x="500" y="385" as="sourcePoint" />
            <mxPoint x="500" y="405" as="targetPoint" />
            <Array as="points">
              <mxPoint x="510" y="395" />
            </Array>
          </mxGeometry>
        </mxCell>
        <mxCell id="ZdthaMtyNPpBsi2oZ3e5-73" value="" style="rounded=1;whiteSpace=wrap;html=1;shadow=1;arcSize=13;labelBackgroundColor=none;movable=0;resizable=0;rotatable=0;deletable=0;editable=0;locked=1;connectable=0;" vertex="1" parent="1">
          <mxGeometry x="600" y="100" width="200" height="360" as="geometry" />
        </mxCell>
        <mxCell id="ZdthaMtyNPpBsi2oZ3e5-74" value="" style="rounded=1;whiteSpace=wrap;html=1;shadow=1;arcSize=13;labelBackgroundColor=none;" vertex="1" parent="1">
          <mxGeometry x="950" y="-140" width="200" height="360" as="geometry" />
        </mxCell>
        <mxCell id="ZdthaMtyNPpBsi2oZ3e5-75" value="" style="endArrow=none;html=1;rounded=0;entryX=0.995;entryY=0.833;entryDx=0;entryDy=0;entryPerimeter=0;labelBackgroundColor=none;fontColor=default;" edge="1" parent="1">
          <mxGeometry width="50" height="50" relative="1" as="geometry">
            <mxPoint x="601" y="120" as="sourcePoint" />
            <mxPoint x="799" y="120" as="targetPoint" />
          </mxGeometry>
        </mxCell>
        <mxCell id="ZdthaMtyNPpBsi2oZ3e5-76" value="" style="endArrow=none;html=1;rounded=0;entryX=0.995;entryY=0.833;entryDx=0;entryDy=0;entryPerimeter=0;labelBackgroundColor=none;fontColor=default;" edge="1" parent="1">
          <mxGeometry width="50" height="50" relative="1" as="geometry">
            <mxPoint x="601" y="440" as="sourcePoint" />
            <mxPoint x="799" y="440" as="targetPoint" />
          </mxGeometry>
        </mxCell>
        <mxCell id="ZdthaMtyNPpBsi2oZ3e5-77" value="&lt;font style=&quot;font-size: 13px;&quot;&gt;&lt;b&gt;ингридиент&lt;/b&gt;&lt;/font&gt;" style="text;strokeColor=none;align=center;fillColor=none;html=1;verticalAlign=middle;whiteSpace=wrap;rounded=0;fontFamily=Helvetica;fontSize=12;fontColor=default;labelBackgroundColor=none;" vertex="1" parent="1">
          <mxGeometry x="670" y="120" width="60" height="30" as="geometry" />
        </mxCell>
        <mxCell id="ZdthaMtyNPpBsi2oZ3e5-78" value="" style="endArrow=none;html=1;rounded=0;fontFamily=Helvetica;fontSize=12;fontColor=default;labelBackgroundColor=none;" edge="1" parent="1">
          <mxGeometry width="50" height="50" relative="1" as="geometry">
            <mxPoint x="620" y="145" as="sourcePoint" />
            <mxPoint x="620" y="125" as="targetPoint" />
            <Array as="points">
              <mxPoint x="610" y="135" />
            </Array>
          </mxGeometry>
        </mxCell>
        <mxCell id="ZdthaMtyNPpBsi2oZ3e5-80" value="" style="endArrow=none;html=1;rounded=0;entryX=0.995;entryY=0.833;entryDx=0;entryDy=0;entryPerimeter=0;labelBackgroundColor=none;fontColor=default;opacity=20;" edge="1" parent="1">
          <mxGeometry width="50" height="50" relative="1" as="geometry">
            <mxPoint x="602" y="189" as="sourcePoint" />
            <mxPoint x="800" y="189" as="targetPoint" />
          </mxGeometry>
        </mxCell>
        <mxCell id="ZdthaMtyNPpBsi2oZ3e5-81" value="&lt;b&gt;&lt;font color=&quot;#c4c4c4&quot; style=&quot;font-size: 14px;&quot;&gt;найти&lt;/font&gt;&lt;/b&gt;" style="text;strokeColor=none;align=center;fillColor=none;html=1;verticalAlign=middle;whiteSpace=wrap;rounded=0;fontFamily=Helvetica;fontSize=12;fontColor=default;labelBackgroundColor=none;" vertex="1" parent="1">
          <mxGeometry x="600" y="160" width="60" height="30" as="geometry" />
        </mxCell>
        <mxCell id="ZdthaMtyNPpBsi2oZ3e5-82" value="" style="ellipse;whiteSpace=wrap;html=1;aspect=fixed;rounded=1;shadow=1;strokeColor=default;align=center;verticalAlign=middle;arcSize=13;fontFamily=Helvetica;fontSize=12;fontColor=default;labelBackgroundColor=none;fillColor=default;strokeWidth=2;opacity=30;" vertex="1" parent="1">
          <mxGeometry x="770" y="165" width="10" height="10" as="geometry" />
        </mxCell>
        <mxCell id="ZdthaMtyNPpBsi2oZ3e5-83" value="" style="endArrow=none;html=1;rounded=0;shadow=1;endSize=7;startSize=7;jumpSize=7;labelBackgroundColor=none;fontColor=default;fillColor=#60a917;strokeColor=#000000;opacity=40;" edge="1" parent="1">
          <mxGeometry width="50" height="50" relative="1" as="geometry">
            <mxPoint x="780" y="175" as="sourcePoint" />
            <mxPoint x="790" y="185" as="targetPoint" />
          </mxGeometry>
        </mxCell>
        <mxCell id="ZdthaMtyNPpBsi2oZ3e5-84" value="поиск по названию" style="text;strokeColor=none;align=center;fillColor=none;html=1;verticalAlign=middle;whiteSpace=wrap;rounded=0;fontFamily=Helvetica;fontSize=12;fontColor=default;labelBackgroundColor=none;" vertex="1" parent="1">
          <mxGeometry x="610" y="210" width="110" height="30" as="geometry" />
        </mxCell>
        <mxCell id="ZdthaMtyNPpBsi2oZ3e5-85" value="поиск по INCI" style="text;strokeColor=none;align=center;fillColor=none;html=1;verticalAlign=middle;whiteSpace=wrap;rounded=0;fontFamily=Helvetica;fontSize=12;fontColor=default;labelBackgroundColor=none;" vertex="1" parent="1">
          <mxGeometry x="610" y="250" width="80" height="30" as="geometry" />
        </mxCell>
        <mxCell id="ZdthaMtyNPpBsi2oZ3e5-86" value="" style="endArrow=none;html=1;rounded=0;fontFamily=Helvetica;fontSize=12;fontColor=default;labelBackgroundColor=none;" edge="1" parent="1">
          <mxGeometry width="50" height="50" relative="1" as="geometry">
            <mxPoint x="770" y="215" as="sourcePoint" />
            <mxPoint x="770" y="235" as="targetPoint" />
            <Array as="points">
              <mxPoint x="780" y="225" />
            </Array>
          </mxGeometry>
        </mxCell>
        <mxCell id="ZdthaMtyNPpBsi2oZ3e5-87" value="" style="endArrow=none;html=1;rounded=0;fontFamily=Helvetica;fontSize=12;fontColor=default;labelBackgroundColor=none;" edge="1" parent="1">
          <mxGeometry width="50" height="50" relative="1" as="geometry">
            <mxPoint x="770" y="255" as="sourcePoint" />
            <mxPoint x="770" y="275" as="targetPoint" />
            <Array as="points">
              <mxPoint x="780" y="265" />
            </Array>
          </mxGeometry>
        </mxCell>
        <mxCell id="ZdthaMtyNPpBsi2oZ3e5-88" value="" style="endArrow=none;html=1;rounded=0;entryX=0.995;entryY=0.833;entryDx=0;entryDy=0;entryPerimeter=0;labelBackgroundColor=none;fontColor=default;" edge="1" parent="1">
          <mxGeometry width="50" height="50" relative="1" as="geometry">
            <mxPoint x="951" y="-120" as="sourcePoint" />
            <mxPoint x="1149" y="-120" as="targetPoint" />
          </mxGeometry>
        </mxCell>
        <mxCell id="ZdthaMtyNPpBsi2oZ3e5-89" value="" style="endArrow=none;html=1;rounded=0;entryX=0.995;entryY=0.833;entryDx=0;entryDy=0;entryPerimeter=0;labelBackgroundColor=none;fontColor=default;" edge="1" parent="1">
          <mxGeometry width="50" height="50" relative="1" as="geometry">
            <mxPoint x="951" y="199" as="sourcePoint" />
            <mxPoint x="1149" y="199" as="targetPoint" />
          </mxGeometry>
        </mxCell>
        <mxCell id="ZdthaMtyNPpBsi2oZ3e5-90" value="" style="endArrow=none;html=1;rounded=0;entryX=0.995;entryY=0.833;entryDx=0;entryDy=0;entryPerimeter=0;labelBackgroundColor=none;fontColor=default;opacity=20;jumpSize=7;" edge="1" parent="1">
          <mxGeometry width="50" height="50" relative="1" as="geometry">
            <mxPoint x="950" y="-40" as="sourcePoint" />
            <mxPoint x="1148" y="-40" as="targetPoint" />
            <Array as="points">
              <mxPoint x="1049" y="-40" />
            </Array>
          </mxGeometry>
        </mxCell>
        <mxCell id="ZdthaMtyNPpBsi2oZ3e5-91" value="&lt;b&gt;&lt;font color=&quot;#c4c4c4&quot; style=&quot;font-size: 14px;&quot;&gt;найти&lt;/font&gt;&lt;/b&gt;" style="text;strokeColor=none;align=center;fillColor=none;html=1;verticalAlign=middle;whiteSpace=wrap;rounded=0;fontFamily=Helvetica;fontSize=12;fontColor=default;labelBackgroundColor=none;" vertex="1" parent="1">
          <mxGeometry x="950" y="-70" width="60" height="30" as="geometry" />
        </mxCell>
        <mxCell id="ZdthaMtyNPpBsi2oZ3e5-92" value="" style="ellipse;whiteSpace=wrap;html=1;aspect=fixed;rounded=1;shadow=1;strokeColor=default;align=center;verticalAlign=middle;arcSize=13;fontFamily=Helvetica;fontSize=12;fontColor=default;labelBackgroundColor=none;fillColor=default;strokeWidth=2;opacity=30;" vertex="1" parent="1">
          <mxGeometry x="1122.5" y="-60" width="10" height="10" as="geometry" />
        </mxCell>
        <mxCell id="ZdthaMtyNPpBsi2oZ3e5-93" value="" style="endArrow=none;html=1;rounded=0;shadow=1;endSize=7;startSize=7;jumpSize=7;labelBackgroundColor=none;fontColor=default;fillColor=#60a917;strokeColor=#000000;opacity=40;" edge="1" parent="1">
          <mxGeometry width="50" height="50" relative="1" as="geometry">
            <mxPoint x="1132" y="-50" as="sourcePoint" />
            <mxPoint x="1142" y="-40" as="targetPoint" />
          </mxGeometry>
        </mxCell>
        <mxCell id="ZdthaMtyNPpBsi2oZ3e5-94" value="&lt;b&gt;поиск по названию&lt;/b&gt;" style="text;strokeColor=none;align=center;fillColor=none;html=1;verticalAlign=middle;whiteSpace=wrap;rounded=0;fontFamily=Helvetica;fontSize=12;fontColor=default;labelBackgroundColor=none;" vertex="1" parent="1">
          <mxGeometry x="987.5" y="-120" width="125" height="30" as="geometry" />
        </mxCell>
        <mxCell id="ZdthaMtyNPpBsi2oZ3e5-95" value="" style="endArrow=none;html=1;rounded=0;fontFamily=Helvetica;fontSize=12;fontColor=default;labelBackgroundColor=none;" edge="1" parent="1">
          <mxGeometry width="50" height="50" relative="1" as="geometry">
            <mxPoint x="970" y="-95" as="sourcePoint" />
            <mxPoint x="970" y="-115" as="targetPoint" />
            <Array as="points">
              <mxPoint x="960" y="-105" />
            </Array>
          </mxGeometry>
        </mxCell>
        <mxCell id="ZdthaMtyNPpBsi2oZ3e5-96" value="" style="shape=table;startSize=0;container=1;collapsible=0;childLayout=tableLayout;fontSize=11;fillColor=none;strokeColor=none;rounded=1;shadow=1;align=center;verticalAlign=middle;arcSize=13;fontFamily=Helvetica;fontColor=default;labelBackgroundColor=none;" vertex="1" parent="1">
          <mxGeometry x="980" y="-20" width="150" height="120" as="geometry" />
        </mxCell>
        <mxCell id="ZdthaMtyNPpBsi2oZ3e5-97" value="" style="shape=tableRow;horizontal=0;startSize=0;swimlaneHead=0;swimlaneBody=0;strokeColor=inherit;top=0;left=0;bottom=0;right=0;collapsible=0;dropTarget=0;fillColor=none;points=[[0,0.5],[1,0.5]];portConstraint=eastwest;fontSize=16;rounded=1;shadow=1;align=center;verticalAlign=middle;arcSize=13;fontFamily=Helvetica;fontColor=default;labelBackgroundColor=none;" vertex="1" parent="ZdthaMtyNPpBsi2oZ3e5-96">
          <mxGeometry width="150" height="30" as="geometry" />
        </mxCell>
        <mxCell id="ZdthaMtyNPpBsi2oZ3e5-98" value="Ретинол" style="shape=partialRectangle;html=1;whiteSpace=wrap;connectable=0;strokeColor=inherit;overflow=hidden;fillColor=none;top=0;left=0;bottom=0;right=0;pointerEvents=1;fontSize=12;align=left;spacingLeft=5;rounded=1;shadow=1;verticalAlign=middle;arcSize=13;fontFamily=Helvetica;fontColor=default;labelBackgroundColor=none;" vertex="1" parent="ZdthaMtyNPpBsi2oZ3e5-97">
          <mxGeometry width="150" height="30" as="geometry">
            <mxRectangle width="150" height="30" as="alternateBounds" />
          </mxGeometry>
        </mxCell>
        <mxCell id="ZdthaMtyNPpBsi2oZ3e5-99" value="" style="shape=tableRow;horizontal=0;startSize=0;swimlaneHead=0;swimlaneBody=0;strokeColor=inherit;top=0;left=0;bottom=0;right=0;collapsible=0;dropTarget=0;fillColor=none;points=[[0,0.5],[1,0.5]];portConstraint=eastwest;fontSize=16;rounded=1;shadow=1;align=center;verticalAlign=middle;arcSize=13;fontFamily=Helvetica;fontColor=default;labelBackgroundColor=none;" vertex="1" parent="ZdthaMtyNPpBsi2oZ3e5-96">
          <mxGeometry y="30" width="150" height="30" as="geometry" />
        </mxCell>
        <mxCell id="ZdthaMtyNPpBsi2oZ3e5-100" value="Гиалуроновая кислота" style="shape=partialRectangle;html=1;whiteSpace=wrap;connectable=0;strokeColor=inherit;overflow=hidden;fillColor=none;top=0;left=0;bottom=0;right=0;pointerEvents=1;fontSize=12;align=left;spacingLeft=5;rounded=1;shadow=1;verticalAlign=middle;arcSize=13;fontFamily=Helvetica;fontColor=default;labelBackgroundColor=none;" vertex="1" parent="ZdthaMtyNPpBsi2oZ3e5-99">
          <mxGeometry width="150" height="30" as="geometry">
            <mxRectangle width="150" height="30" as="alternateBounds" />
          </mxGeometry>
        </mxCell>
        <mxCell id="ZdthaMtyNPpBsi2oZ3e5-101" value="" style="shape=tableRow;horizontal=0;startSize=0;swimlaneHead=0;swimlaneBody=0;strokeColor=inherit;top=0;left=0;bottom=0;right=0;collapsible=0;dropTarget=0;fillColor=none;points=[[0,0.5],[1,0.5]];portConstraint=eastwest;fontSize=16;rounded=1;shadow=1;align=center;verticalAlign=middle;arcSize=13;fontFamily=Helvetica;fontColor=default;labelBackgroundColor=none;" vertex="1" parent="ZdthaMtyNPpBsi2oZ3e5-96">
          <mxGeometry y="60" width="150" height="30" as="geometry" />
        </mxCell>
        <mxCell id="ZdthaMtyNPpBsi2oZ3e5-102" value="Витамин С" style="shape=partialRectangle;html=1;whiteSpace=wrap;connectable=0;strokeColor=inherit;overflow=hidden;fillColor=none;top=0;left=0;bottom=0;right=0;pointerEvents=1;fontSize=12;align=left;spacingLeft=5;rounded=1;shadow=1;verticalAlign=middle;arcSize=13;fontFamily=Helvetica;fontColor=default;labelBackgroundColor=none;" vertex="1" parent="ZdthaMtyNPpBsi2oZ3e5-101">
          <mxGeometry width="150" height="30" as="geometry">
            <mxRectangle width="150" height="30" as="alternateBounds" />
          </mxGeometry>
        </mxCell>
        <mxCell id="ZdthaMtyNPpBsi2oZ3e5-103" style="shape=tableRow;horizontal=0;startSize=0;swimlaneHead=0;swimlaneBody=0;strokeColor=inherit;top=0;left=0;bottom=0;right=0;collapsible=0;dropTarget=0;fillColor=none;points=[[0,0.5],[1,0.5]];portConstraint=eastwest;fontSize=16;rounded=1;shadow=1;align=center;verticalAlign=middle;arcSize=13;fontFamily=Helvetica;fontColor=default;labelBackgroundColor=none;" vertex="1" parent="ZdthaMtyNPpBsi2oZ3e5-96">
          <mxGeometry y="90" width="150" height="30" as="geometry" />
        </mxCell>
        <mxCell id="ZdthaMtyNPpBsi2oZ3e5-104" value="Пептиды" style="shape=partialRectangle;html=1;whiteSpace=wrap;connectable=0;strokeColor=inherit;overflow=hidden;fillColor=none;top=0;left=0;bottom=0;right=0;pointerEvents=1;fontSize=12;align=left;spacingLeft=5;rounded=1;shadow=1;verticalAlign=middle;arcSize=13;fontFamily=Helvetica;fontColor=default;labelBackgroundColor=none;" vertex="1" parent="ZdthaMtyNPpBsi2oZ3e5-103">
          <mxGeometry width="150" height="30" as="geometry">
            <mxRectangle width="150" height="30" as="alternateBounds" />
          </mxGeometry>
        </mxCell>
        <mxCell id="ZdthaMtyNPpBsi2oZ3e5-105" value="" style="shape=table;startSize=0;container=1;collapsible=0;childLayout=tableLayout;fontSize=11;fillColor=none;strokeColor=none;rounded=1;shadow=1;align=center;verticalAlign=middle;arcSize=13;fontFamily=Helvetica;fontColor=default;labelBackgroundColor=none;" vertex="1" parent="1">
          <mxGeometry x="980" y="102.25" width="150" height="85.5" as="geometry" />
        </mxCell>
        <mxCell id="ZdthaMtyNPpBsi2oZ3e5-106" value="" style="shape=tableRow;horizontal=0;startSize=0;swimlaneHead=0;swimlaneBody=0;strokeColor=inherit;top=0;left=0;bottom=0;right=0;collapsible=0;dropTarget=0;fillColor=none;points=[[0,0.5],[1,0.5]];portConstraint=eastwest;fontSize=16;rounded=1;shadow=1;align=center;verticalAlign=middle;arcSize=13;fontFamily=Helvetica;fontColor=default;labelBackgroundColor=none;" vertex="1" parent="ZdthaMtyNPpBsi2oZ3e5-105">
          <mxGeometry width="150" height="25" as="geometry" />
        </mxCell>
        <mxCell id="ZdthaMtyNPpBsi2oZ3e5-107" value="Ниацинамид" style="shape=partialRectangle;html=1;whiteSpace=wrap;connectable=0;strokeColor=inherit;overflow=hidden;fillColor=none;top=0;left=0;bottom=0;right=0;pointerEvents=1;fontSize=12;align=left;spacingLeft=5;rounded=1;shadow=1;verticalAlign=middle;arcSize=13;fontFamily=Helvetica;fontColor=default;labelBackgroundColor=none;" vertex="1" parent="ZdthaMtyNPpBsi2oZ3e5-106">
          <mxGeometry width="150" height="25" as="geometry">
            <mxRectangle width="150" height="25" as="alternateBounds" />
          </mxGeometry>
        </mxCell>
        <mxCell id="ZdthaMtyNPpBsi2oZ3e5-108" value="" style="shape=tableRow;horizontal=0;startSize=0;swimlaneHead=0;swimlaneBody=0;strokeColor=inherit;top=0;left=0;bottom=0;right=0;collapsible=0;dropTarget=0;fillColor=none;points=[[0,0.5],[1,0.5]];portConstraint=eastwest;fontSize=16;rounded=1;shadow=1;align=center;verticalAlign=middle;arcSize=13;fontFamily=Helvetica;fontColor=default;labelBackgroundColor=none;" vertex="1" parent="ZdthaMtyNPpBsi2oZ3e5-105">
          <mxGeometry y="25" width="150" height="31" as="geometry" />
        </mxCell>
        <mxCell id="ZdthaMtyNPpBsi2oZ3e5-109" value="Салициловая кислота" style="shape=partialRectangle;html=1;whiteSpace=wrap;connectable=0;strokeColor=inherit;overflow=hidden;fillColor=none;top=0;left=0;bottom=0;right=0;pointerEvents=1;fontSize=12;align=left;spacingLeft=5;rounded=1;shadow=1;verticalAlign=middle;arcSize=13;fontFamily=Helvetica;fontColor=default;labelBackgroundColor=none;" vertex="1" parent="ZdthaMtyNPpBsi2oZ3e5-108">
          <mxGeometry width="150" height="31" as="geometry">
            <mxRectangle width="150" height="31" as="alternateBounds" />
          </mxGeometry>
        </mxCell>
        <mxCell id="ZdthaMtyNPpBsi2oZ3e5-112" style="shape=tableRow;horizontal=0;startSize=0;swimlaneHead=0;swimlaneBody=0;strokeColor=inherit;top=0;left=0;bottom=0;right=0;collapsible=0;dropTarget=0;fillColor=none;points=[[0,0.5],[1,0.5]];portConstraint=eastwest;fontSize=16;rounded=1;shadow=1;align=center;verticalAlign=middle;arcSize=13;fontFamily=Helvetica;fontColor=default;labelBackgroundColor=none;" vertex="1" parent="ZdthaMtyNPpBsi2oZ3e5-105">
          <mxGeometry y="56" width="150" height="30" as="geometry" />
        </mxCell>
        <mxCell id="ZdthaMtyNPpBsi2oZ3e5-113" value="" style="shape=partialRectangle;html=1;whiteSpace=wrap;connectable=0;strokeColor=inherit;overflow=hidden;fillColor=none;top=0;left=0;bottom=0;right=0;pointerEvents=1;fontSize=12;align=left;spacingLeft=5;rounded=1;shadow=1;verticalAlign=middle;arcSize=13;fontFamily=Helvetica;fontColor=default;labelBackgroundColor=none;" vertex="1" parent="ZdthaMtyNPpBsi2oZ3e5-112">
          <mxGeometry width="150" height="30" as="geometry">
            <mxRectangle width="150" height="30" as="alternateBounds" />
          </mxGeometry>
        </mxCell>
        <mxCell id="ZdthaMtyNPpBsi2oZ3e5-118" value="" style="whiteSpace=wrap;html=1;aspect=fixed;rounded=1;shadow=1;strokeColor=default;align=center;verticalAlign=middle;arcSize=0;fontFamily=Helvetica;fontSize=12;fontColor=default;labelBackgroundColor=none;fillColor=default;" vertex="1" parent="1">
          <mxGeometry x="960" y="110" width="10" height="10" as="geometry" />
        </mxCell>
        <mxCell id="ZdthaMtyNPpBsi2oZ3e5-119" value="" style="whiteSpace=wrap;html=1;aspect=fixed;rounded=1;shadow=1;strokeColor=default;align=center;verticalAlign=middle;arcSize=0;fontFamily=Helvetica;fontSize=12;fontColor=default;labelBackgroundColor=none;fillColor=default;" vertex="1" parent="1">
          <mxGeometry x="960" y="20" width="10" height="10" as="geometry" />
        </mxCell>
        <mxCell id="ZdthaMtyNPpBsi2oZ3e5-120" value="" style="whiteSpace=wrap;html=1;aspect=fixed;rounded=1;shadow=1;strokeColor=default;align=center;verticalAlign=middle;arcSize=0;fontFamily=Helvetica;fontSize=12;fontColor=default;labelBackgroundColor=none;fillColor=default;" vertex="1" parent="1">
          <mxGeometry x="960" y="-10" width="10" height="10" as="geometry" />
        </mxCell>
        <mxCell id="ZdthaMtyNPpBsi2oZ3e5-220" value="" style="whiteSpace=wrap;html=1;aspect=fixed;rounded=1;shadow=1;strokeColor=default;align=center;verticalAlign=middle;arcSize=0;fontFamily=Helvetica;fontSize=12;fontColor=default;labelBackgroundColor=none;fillColor=default;" vertex="1" parent="1">
          <mxGeometry x="960" y="50" width="10" height="10" as="geometry" />
        </mxCell>
        <mxCell id="ZdthaMtyNPpBsi2oZ3e5-221" value="" style="whiteSpace=wrap;html=1;aspect=fixed;rounded=1;shadow=1;strokeColor=default;align=center;verticalAlign=middle;arcSize=0;fontFamily=Helvetica;fontSize=12;fontColor=default;labelBackgroundColor=none;fillColor=default;" vertex="1" parent="1">
          <mxGeometry x="960" y="140" width="10" height="10" as="geometry" />
        </mxCell>
        <mxCell id="ZdthaMtyNPpBsi2oZ3e5-223" value="" style="whiteSpace=wrap;html=1;aspect=fixed;rounded=1;shadow=1;strokeColor=default;align=center;verticalAlign=middle;arcSize=0;fontFamily=Helvetica;fontSize=12;fontColor=default;labelBackgroundColor=none;fillColor=default;" vertex="1" parent="1">
          <mxGeometry x="960" y="80" width="10" height="10" as="geometry" />
        </mxCell>
        <mxCell id="ZdthaMtyNPpBsi2oZ3e5-227" value="" style="verticalLabelPosition=bottom;verticalAlign=top;html=1;shape=mxgraph.basic.patternFillRect;fillStyle=diag;step=5;fillStrokeWidth=0.2;fillStrokeColor=#dddddd;rounded=1;shadow=1;strokeColor=#36393d;align=center;arcSize=13;fontFamily=Helvetica;fontSize=12;labelBackgroundColor=none;fillColor=#eeeeee;" vertex="1" parent="1">
          <mxGeometry x="982" y="165" width="136" height="25" as="geometry" />
        </mxCell>
        <mxCell id="ZdthaMtyNPpBsi2oZ3e5-224" value="&lt;font style=&quot;font-size: 11px;&quot;&gt;&lt;b&gt;показать 562 продукта&lt;/b&gt;&lt;/font&gt;" style="text;strokeColor=none;align=center;fillColor=none;html=1;verticalAlign=middle;whiteSpace=wrap;rounded=0;fontFamily=Helvetica;fontSize=12;fontColor=default;labelBackgroundColor=none;strokeWidth=1;" vertex="1" parent="1">
          <mxGeometry x="982" y="162.5" width="140" height="30" as="geometry" />
        </mxCell>
        <mxCell id="ZdthaMtyNPpBsi2oZ3e5-228" value="" style="verticalLabelPosition=bottom;verticalAlign=top;html=1;shape=mxgraph.basic.tick;rounded=1;shadow=1;strokeColor=default;align=center;arcSize=13;fontFamily=Helvetica;fontSize=12;fontColor=default;labelBackgroundColor=none;fillColor=#000000;" vertex="1" parent="1">
          <mxGeometry x="960" y="52.5" width="10" height="5" as="geometry" />
        </mxCell>
        <mxCell id="ZdthaMtyNPpBsi2oZ3e5-231" value="" style="verticalLabelPosition=bottom;verticalAlign=top;html=1;shape=mxgraph.basic.tick;rounded=1;shadow=1;strokeColor=default;align=center;arcSize=13;fontFamily=Helvetica;fontSize=12;fontColor=default;labelBackgroundColor=none;fillColor=#000000;" vertex="1" parent="1">
          <mxGeometry x="960" y="112.5" width="10" height="5" as="geometry" />
        </mxCell>
        <mxCell id="ZdthaMtyNPpBsi2oZ3e5-232" value="" style="rounded=1;whiteSpace=wrap;html=1;shadow=1;arcSize=13;labelBackgroundColor=none;movable=1;resizable=1;rotatable=1;deletable=1;editable=1;locked=0;connectable=1;" vertex="1" parent="1">
          <mxGeometry x="955" y="280" width="200" height="360" as="geometry" />
        </mxCell>
        <mxCell id="ZdthaMtyNPpBsi2oZ3e5-233" value="" style="endArrow=none;html=1;rounded=0;entryX=0.995;entryY=0.833;entryDx=0;entryDy=0;entryPerimeter=0;labelBackgroundColor=none;fontColor=default;" edge="1" parent="1">
          <mxGeometry width="50" height="50" relative="1" as="geometry">
            <mxPoint x="956" y="300" as="sourcePoint" />
            <mxPoint x="1154" y="300" as="targetPoint" />
          </mxGeometry>
        </mxCell>
        <mxCell id="ZdthaMtyNPpBsi2oZ3e5-234" value="" style="endArrow=none;html=1;rounded=0;entryX=0.995;entryY=0.833;entryDx=0;entryDy=0;entryPerimeter=0;labelBackgroundColor=none;fontColor=default;" edge="1" parent="1">
          <mxGeometry width="50" height="50" relative="1" as="geometry">
            <mxPoint x="956" y="620" as="sourcePoint" />
            <mxPoint x="1154" y="620" as="targetPoint" />
          </mxGeometry>
        </mxCell>
        <mxCell id="ZdthaMtyNPpBsi2oZ3e5-235" value="" style="endArrow=none;html=1;rounded=0;entryX=0.995;entryY=0.833;entryDx=0;entryDy=0;entryPerimeter=0;labelBackgroundColor=none;fontColor=default;jumpSize=7;opacity=30;" edge="1" parent="1">
          <mxGeometry width="50" height="50" relative="1" as="geometry">
            <mxPoint x="956" y="374.5" as="sourcePoint" />
            <mxPoint x="1154" y="374.5" as="targetPoint" />
          </mxGeometry>
        </mxCell>
        <mxCell id="ZdthaMtyNPpBsi2oZ3e5-236" value="&lt;b&gt;поиск по INCI&lt;/b&gt;" style="text;strokeColor=none;align=center;fillColor=none;html=1;verticalAlign=middle;whiteSpace=wrap;rounded=0;fontFamily=Helvetica;fontSize=12;fontColor=default;labelBackgroundColor=none;" vertex="1" parent="1">
          <mxGeometry x="1010" y="300" width="90" height="30" as="geometry" />
        </mxCell>
        <mxCell id="ZdthaMtyNPpBsi2oZ3e5-237" value="" style="endArrow=none;html=1;rounded=0;fontFamily=Helvetica;fontSize=12;fontColor=default;labelBackgroundColor=none;" edge="1" parent="1">
          <mxGeometry width="50" height="50" relative="1" as="geometry">
            <mxPoint x="980" y="325" as="sourcePoint" />
            <mxPoint x="980" y="305" as="targetPoint" />
            <Array as="points">
              <mxPoint x="970" y="315" />
            </Array>
          </mxGeometry>
        </mxCell>
        <mxCell id="ZdthaMtyNPpBsi2oZ3e5-238" value="&lt;span style=&quot;font-size: 14px;&quot;&gt;&lt;b style=&quot;&quot;&gt;Gly&lt;/b&gt;&lt;/span&gt;" style="text;strokeColor=none;align=center;fillColor=none;html=1;verticalAlign=middle;whiteSpace=wrap;rounded=0;fontFamily=Helvetica;fontSize=12;fontColor=default;labelBackgroundColor=none;" vertex="1" parent="1">
          <mxGeometry x="955" y="344.5" width="50" height="30" as="geometry" />
        </mxCell>
        <mxCell id="ZdthaMtyNPpBsi2oZ3e5-250" value="" style="shape=table;startSize=0;container=1;collapsible=0;childLayout=tableLayout;fontSize=11;fillColor=none;strokeColor=none;rounded=1;shadow=1;align=center;verticalAlign=middle;arcSize=13;fontFamily=Helvetica;fontColor=default;labelBackgroundColor=none;" vertex="1" parent="1">
          <mxGeometry x="982.5" y="384.5" width="150" height="126.5" as="geometry" />
        </mxCell>
        <mxCell id="ZdthaMtyNPpBsi2oZ3e5-251" value="" style="shape=tableRow;horizontal=0;startSize=0;swimlaneHead=0;swimlaneBody=0;strokeColor=inherit;top=0;left=0;bottom=0;right=0;collapsible=0;dropTarget=0;fillColor=none;points=[[0,0.5],[1,0.5]];portConstraint=eastwest;fontSize=16;rounded=1;shadow=1;align=center;verticalAlign=middle;arcSize=13;fontFamily=Helvetica;fontColor=default;labelBackgroundColor=none;" vertex="1" parent="ZdthaMtyNPpBsi2oZ3e5-250">
          <mxGeometry width="150" height="35" as="geometry" />
        </mxCell>
        <mxCell id="ZdthaMtyNPpBsi2oZ3e5-252" value="Glycerin" style="shape=partialRectangle;html=1;whiteSpace=wrap;connectable=0;strokeColor=inherit;overflow=hidden;fillColor=none;top=0;left=0;bottom=0;right=0;pointerEvents=1;fontSize=12;align=left;spacingLeft=5;rounded=1;shadow=1;verticalAlign=middle;arcSize=13;fontFamily=Helvetica;fontColor=default;labelBackgroundColor=none;" vertex="1" parent="ZdthaMtyNPpBsi2oZ3e5-251">
          <mxGeometry width="150" height="35" as="geometry">
            <mxRectangle width="150" height="35" as="alternateBounds" />
          </mxGeometry>
        </mxCell>
        <mxCell id="ZdthaMtyNPpBsi2oZ3e5-253" value="" style="shape=tableRow;horizontal=0;startSize=0;swimlaneHead=0;swimlaneBody=0;strokeColor=inherit;top=0;left=0;bottom=0;right=0;collapsible=0;dropTarget=0;fillColor=none;points=[[0,0.5],[1,0.5]];portConstraint=eastwest;fontSize=16;rounded=1;shadow=1;align=center;verticalAlign=middle;arcSize=13;fontFamily=Helvetica;fontColor=default;labelBackgroundColor=none;" vertex="1" parent="ZdthaMtyNPpBsi2oZ3e5-250">
          <mxGeometry y="35" width="150" height="31" as="geometry" />
        </mxCell>
        <mxCell id="ZdthaMtyNPpBsi2oZ3e5-254" value="&lt;span style=&quot;background-color: rgb(255, 255, 255);&quot;&gt;&lt;font face=&quot;Helvetica&quot; style=&quot;font-size: 12px;&quot;&gt;Glycilic Acid&lt;/font&gt;&lt;/span&gt;" style="shape=partialRectangle;html=1;whiteSpace=wrap;connectable=0;strokeColor=inherit;overflow=hidden;fillColor=none;top=0;left=0;bottom=0;right=0;pointerEvents=1;fontSize=12;align=left;spacingLeft=5;rounded=1;shadow=1;verticalAlign=middle;arcSize=13;fontFamily=Helvetica;fontColor=default;labelBackgroundColor=none;" vertex="1" parent="ZdthaMtyNPpBsi2oZ3e5-253">
          <mxGeometry width="150" height="31" as="geometry">
            <mxRectangle width="150" height="31" as="alternateBounds" />
          </mxGeometry>
        </mxCell>
        <mxCell id="ZdthaMtyNPpBsi2oZ3e5-255" value="" style="shape=tableRow;horizontal=0;startSize=0;swimlaneHead=0;swimlaneBody=0;strokeColor=inherit;top=0;left=0;bottom=0;right=0;collapsible=0;dropTarget=0;fillColor=none;points=[[0,0.5],[1,0.5]];portConstraint=eastwest;fontSize=16;rounded=1;shadow=1;align=center;verticalAlign=middle;arcSize=13;fontFamily=Helvetica;fontColor=default;labelBackgroundColor=none;" vertex="1" parent="ZdthaMtyNPpBsi2oZ3e5-250">
          <mxGeometry y="66" width="150" height="31" as="geometry" />
        </mxCell>
        <mxCell id="ZdthaMtyNPpBsi2oZ3e5-256" value="" style="shape=partialRectangle;html=1;whiteSpace=wrap;connectable=0;strokeColor=inherit;overflow=hidden;fillColor=none;top=0;left=0;bottom=0;right=0;pointerEvents=1;fontSize=12;align=left;spacingLeft=5;rounded=1;shadow=1;verticalAlign=middle;arcSize=13;fontFamily=Helvetica;fontColor=default;labelBackgroundColor=none;" vertex="1" parent="ZdthaMtyNPpBsi2oZ3e5-255">
          <mxGeometry width="150" height="31" as="geometry">
            <mxRectangle width="150" height="31" as="alternateBounds" />
          </mxGeometry>
        </mxCell>
        <mxCell id="ZdthaMtyNPpBsi2oZ3e5-257" style="shape=tableRow;horizontal=0;startSize=0;swimlaneHead=0;swimlaneBody=0;strokeColor=inherit;top=0;left=0;bottom=0;right=0;collapsible=0;dropTarget=0;fillColor=none;points=[[0,0.5],[1,0.5]];portConstraint=eastwest;fontSize=16;rounded=1;shadow=1;align=center;verticalAlign=middle;arcSize=13;fontFamily=Helvetica;fontColor=default;labelBackgroundColor=none;" vertex="1" parent="ZdthaMtyNPpBsi2oZ3e5-250">
          <mxGeometry y="97" width="150" height="30" as="geometry" />
        </mxCell>
        <mxCell id="ZdthaMtyNPpBsi2oZ3e5-258" value="" style="shape=partialRectangle;html=1;whiteSpace=wrap;connectable=0;strokeColor=inherit;overflow=hidden;fillColor=none;top=0;left=0;bottom=0;right=0;pointerEvents=1;fontSize=12;align=left;spacingLeft=5;rounded=1;shadow=1;verticalAlign=middle;arcSize=13;fontFamily=Helvetica;fontColor=default;labelBackgroundColor=none;" vertex="1" parent="ZdthaMtyNPpBsi2oZ3e5-257">
          <mxGeometry width="150" height="30" as="geometry">
            <mxRectangle width="150" height="30" as="alternateBounds" />
          </mxGeometry>
        </mxCell>
        <mxCell id="ZdthaMtyNPpBsi2oZ3e5-268" value="" style="whiteSpace=wrap;html=1;aspect=fixed;rounded=1;shadow=1;strokeColor=default;align=center;verticalAlign=middle;arcSize=0;fontFamily=Helvetica;fontSize=12;fontColor=default;labelBackgroundColor=none;fillColor=default;" vertex="1" parent="1">
          <mxGeometry x="970" y="430" width="10" height="10" as="geometry" />
        </mxCell>
        <mxCell id="ZdthaMtyNPpBsi2oZ3e5-269" value="" style="whiteSpace=wrap;html=1;aspect=fixed;rounded=1;shadow=1;strokeColor=default;align=center;verticalAlign=middle;arcSize=0;fontFamily=Helvetica;fontSize=12;fontColor=default;labelBackgroundColor=none;fillColor=default;" vertex="1" parent="1">
          <mxGeometry x="970" y="395" width="10" height="10" as="geometry" />
        </mxCell>
        <mxCell id="ZdthaMtyNPpBsi2oZ3e5-274" value="" style="verticalLabelPosition=bottom;verticalAlign=top;html=1;shape=mxgraph.basic.patternFillRect;fillStyle=diag;step=5;fillStrokeWidth=0.2;fillStrokeColor=#dddddd;rounded=1;shadow=1;strokeColor=#36393d;align=center;arcSize=13;fontFamily=Helvetica;fontSize=12;labelBackgroundColor=none;fillColor=#eeeeee;" vertex="1" parent="1">
          <mxGeometry x="982" y="585" width="136" height="25" as="geometry" />
        </mxCell>
        <mxCell id="ZdthaMtyNPpBsi2oZ3e5-273" value="&lt;font style=&quot;font-size: 11px;&quot;&gt;&lt;b&gt;показать 6986 продукта&lt;/b&gt;&lt;/font&gt;" style="text;strokeColor=none;align=center;fillColor=none;html=1;verticalAlign=middle;whiteSpace=wrap;rounded=0;fontFamily=Helvetica;fontSize=12;fontColor=default;labelBackgroundColor=none;strokeWidth=1;" vertex="1" parent="1">
          <mxGeometry x="980" y="582.5" width="140" height="30" as="geometry" />
        </mxCell>
        <mxCell id="ZdthaMtyNPpBsi2oZ3e5-275" value="" style="verticalLabelPosition=bottom;verticalAlign=top;html=1;shape=mxgraph.basic.tick;rounded=1;shadow=1;strokeColor=default;align=center;arcSize=13;fontFamily=Helvetica;fontSize=12;fontColor=default;labelBackgroundColor=none;fillColor=#000000;" vertex="1" parent="1">
          <mxGeometry x="970" y="397.5" width="10" height="5" as="geometry" />
        </mxCell>
        <mxCell id="ZdthaMtyNPpBsi2oZ3e5-280" value="" style="ellipse;whiteSpace=wrap;html=1;rounded=1;shadow=1;strokeColor=#CC0000;align=center;verticalAlign=middle;arcSize=13;fontFamily=Helvetica;fontSize=12;labelBackgroundColor=none;fillColor=none;strokeWidth=4;opacity=40;" vertex="1" parent="1">
          <mxGeometry x="50" y="170" width="42" height="30" as="geometry" />
        </mxCell>
        <mxCell id="ZdthaMtyNPpBsi2oZ3e5-281" value="" style="endArrow=classic;html=1;rounded=0;fontFamily=Helvetica;fontSize=12;fontColor=default;labelBackgroundColor=none;" edge="1" parent="1">
          <mxGeometry width="50" height="50" relative="1" as="geometry">
            <mxPoint x="250" y="279" as="sourcePoint" />
            <mxPoint x="320" y="279" as="targetPoint" />
          </mxGeometry>
        </mxCell>
        <mxCell id="ZdthaMtyNPpBsi2oZ3e5-283" value="" style="ellipse;whiteSpace=wrap;html=1;rounded=1;shadow=1;strokeColor=#CC0000;align=center;verticalAlign=middle;arcSize=13;fontFamily=Helvetica;fontSize=12;labelBackgroundColor=none;fillColor=none;strokeWidth=4;opacity=40;" vertex="1" parent="1">
          <mxGeometry x="600" y="210" width="170" height="30" as="geometry" />
        </mxCell>
        <mxCell id="ZdthaMtyNPpBsi2oZ3e5-294" style="edgeStyle=orthogonalEdgeStyle;rounded=0;orthogonalLoop=1;jettySize=auto;html=1;entryX=0.5;entryY=0;entryDx=0;entryDy=0;fontFamily=Helvetica;fontSize=12;fontColor=default;labelBackgroundColor=none;" edge="1" parent="1" source="ZdthaMtyNPpBsi2oZ3e5-284" target="ZdthaMtyNPpBsi2oZ3e5-232">
          <mxGeometry relative="1" as="geometry" />
        </mxCell>
        <mxCell id="ZdthaMtyNPpBsi2oZ3e5-284" value="" style="ellipse;whiteSpace=wrap;html=1;rounded=1;shadow=1;strokeColor=#0000FF;align=center;verticalAlign=middle;arcSize=13;fontFamily=Helvetica;fontSize=12;labelBackgroundColor=none;fillColor=none;strokeWidth=4;opacity=40;" vertex="1" parent="1">
          <mxGeometry x="600" y="250" width="170" height="30" as="geometry" />
        </mxCell>
        <mxCell id="ZdthaMtyNPpBsi2oZ3e5-285" style="edgeStyle=orthogonalEdgeStyle;rounded=0;orthogonalLoop=1;jettySize=auto;html=1;entryX=0.015;entryY=0.178;entryDx=0;entryDy=0;entryPerimeter=0;fontFamily=Helvetica;fontSize=12;fontColor=default;labelBackgroundColor=none;" edge="1" parent="1" source="ZdthaMtyNPpBsi2oZ3e5-283" target="ZdthaMtyNPpBsi2oZ3e5-74">
          <mxGeometry relative="1" as="geometry" />
        </mxCell>
        <mxCell id="ZdthaMtyNPpBsi2oZ3e5-239" value="" style="ellipse;whiteSpace=wrap;html=1;aspect=fixed;rounded=1;shadow=1;strokeColor=default;align=center;verticalAlign=middle;arcSize=13;fontFamily=Helvetica;fontSize=12;fontColor=default;labelBackgroundColor=none;fillColor=default;strokeWidth=2;opacity=30;" vertex="1" parent="1">
          <mxGeometry x="1130" y="350" width="10" height="10" as="geometry" />
        </mxCell>
        <mxCell id="ZdthaMtyNPpBsi2oZ3e5-290" value="" style="endArrow=none;html=1;rounded=0;shadow=1;endSize=7;startSize=7;jumpSize=7;labelBackgroundColor=none;fontColor=default;fillColor=#60a917;strokeColor=#000000;opacity=40;" edge="1" parent="1">
          <mxGeometry width="50" height="50" relative="1" as="geometry">
            <mxPoint x="1140" y="360" as="sourcePoint" />
            <mxPoint x="1150" y="370" as="targetPoint" />
          </mxGeometry>
        </mxCell>
        <mxCell id="ZdthaMtyNPpBsi2oZ3e5-296" style="edgeStyle=orthogonalEdgeStyle;rounded=0;orthogonalLoop=1;jettySize=auto;html=1;entryX=0;entryY=0.5;entryDx=0;entryDy=0;fontFamily=Helvetica;fontSize=12;fontColor=default;labelBackgroundColor=none;" edge="1" parent="1" source="ZdthaMtyNPpBsi2oZ3e5-295" target="ZdthaMtyNPpBsi2oZ3e5-81">
          <mxGeometry relative="1" as="geometry" />
        </mxCell>
        <mxCell id="ZdthaMtyNPpBsi2oZ3e5-295" value="" style="ellipse;whiteSpace=wrap;html=1;rounded=1;shadow=1;strokeColor=#CC0000;align=center;verticalAlign=middle;arcSize=13;fontFamily=Helvetica;fontSize=12;labelBackgroundColor=none;fillColor=none;strokeWidth=4;opacity=40;" vertex="1" parent="1">
          <mxGeometry x="320" y="320" width="170" height="30" as="geometry" />
        </mxCell>
        <mxCell id="ZdthaMtyNPpBsi2oZ3e5-297" value="" style="rounded=1;whiteSpace=wrap;html=1;shadow=1;arcSize=13;labelBackgroundColor=none;" vertex="1" parent="1">
          <mxGeometry x="1260" y="100" width="200" height="360" as="geometry" />
        </mxCell>
        <mxCell id="ZdthaMtyNPpBsi2oZ3e5-298" value="" style="endArrow=none;html=1;rounded=0;entryX=0.995;entryY=0.833;entryDx=0;entryDy=0;entryPerimeter=0;labelBackgroundColor=none;fontColor=default;" edge="1" parent="1">
          <mxGeometry width="50" height="50" relative="1" as="geometry">
            <mxPoint x="1260" y="120" as="sourcePoint" />
            <mxPoint x="1458" y="120" as="targetPoint" />
          </mxGeometry>
        </mxCell>
        <mxCell id="ZdthaMtyNPpBsi2oZ3e5-299" value="" style="endArrow=none;html=1;rounded=0;entryX=0.995;entryY=0.833;entryDx=0;entryDy=0;entryPerimeter=0;labelBackgroundColor=none;fontColor=default;" edge="1" parent="1">
          <mxGeometry width="50" height="50" relative="1" as="geometry">
            <mxPoint x="1262" y="440" as="sourcePoint" />
            <mxPoint x="1460" y="440" as="targetPoint" />
          </mxGeometry>
        </mxCell>
        <mxCell id="ZdthaMtyNPpBsi2oZ3e5-300" value="" style="ellipse;whiteSpace=wrap;html=1;rounded=1;shadow=1;strokeColor=#CC0000;align=center;verticalAlign=middle;arcSize=13;fontFamily=Helvetica;fontSize=12;labelBackgroundColor=none;fillColor=none;strokeWidth=4;opacity=40;" vertex="1" parent="1">
          <mxGeometry x="967" y="162.5" width="170" height="30" as="geometry" />
        </mxCell>
        <mxCell id="ZdthaMtyNPpBsi2oZ3e5-301" style="edgeStyle=orthogonalEdgeStyle;rounded=0;orthogonalLoop=1;jettySize=auto;html=1;entryX=-0.015;entryY=0.436;entryDx=0;entryDy=0;entryPerimeter=0;fontFamily=Helvetica;fontSize=12;fontColor=default;labelBackgroundColor=none;" edge="1" parent="1" source="ZdthaMtyNPpBsi2oZ3e5-300" target="ZdthaMtyNPpBsi2oZ3e5-297">
          <mxGeometry relative="1" as="geometry" />
        </mxCell>
        <mxCell id="ZdthaMtyNPpBsi2oZ3e5-302" value="" style="rounded=0;whiteSpace=wrap;html=1;fillColor=#cdeb8b;strokeColor=#36393d;" vertex="1" parent="1">
          <mxGeometry x="1260" y="120" width="200" height="50" as="geometry" />
        </mxCell>
        <mxCell id="ZdthaMtyNPpBsi2oZ3e5-303" value="" style="shape=partialRectangle;whiteSpace=wrap;html=1;left=0;right=0;fillColor=none;rounded=1;shadow=1;strokeColor=default;align=center;verticalAlign=middle;arcSize=13;fontFamily=Helvetica;fontSize=12;fontColor=default;labelBackgroundColor=none;strokeWidth=1;" vertex="1" parent="1">
          <mxGeometry x="1270" y="177.75" width="25.25" height="12.25" as="geometry" />
        </mxCell>
        <mxCell id="ZdthaMtyNPpBsi2oZ3e5-308" value="" style="shape=waypoint;sketch=0;fillStyle=solid;size=6;pointerEvents=1;points=[];fillColor=none;resizable=0;rotatable=0;perimeter=centerPerimeter;snapToPoint=1;rounded=1;shadow=1;strokeColor=default;align=center;verticalAlign=middle;arcSize=13;fontFamily=Helvetica;fontSize=12;fontColor=default;labelBackgroundColor=none;" vertex="1" parent="1">
          <mxGeometry x="1280" y="167.75" width="20" height="20" as="geometry" />
        </mxCell>
        <mxCell id="ZdthaMtyNPpBsi2oZ3e5-311" value="" style="shape=waypoint;sketch=0;fillStyle=solid;size=6;pointerEvents=1;points=[];fillColor=none;resizable=0;rotatable=0;perimeter=centerPerimeter;snapToPoint=1;rounded=1;shadow=1;strokeColor=default;align=center;verticalAlign=middle;arcSize=13;fontFamily=Helvetica;fontSize=12;fontColor=default;labelBackgroundColor=none;" vertex="1" parent="1">
          <mxGeometry x="1270" y="180" width="20" height="20" as="geometry" />
        </mxCell>
        <mxCell id="ZdthaMtyNPpBsi2oZ3e5-312" value="&lt;b&gt;&lt;font style=&quot;font-size: 13px;&quot;&gt;2&lt;/font&gt;&lt;/b&gt;" style="text;strokeColor=none;align=center;fillColor=none;html=1;verticalAlign=middle;whiteSpace=wrap;rounded=0;fontFamily=Helvetica;fontSize=12;fontColor=default;labelBackgroundColor=none;" vertex="1" parent="1">
          <mxGeometry x="1280" y="167.75" width="60" height="30" as="geometry" />
        </mxCell>
        <mxCell id="ZdthaMtyNPpBsi2oZ3e5-313" value="562 продукта" style="text;strokeColor=none;align=center;fillColor=none;html=1;verticalAlign=middle;whiteSpace=wrap;rounded=0;fontFamily=Helvetica;fontSize=12;fontColor=default;labelBackgroundColor=none;" vertex="1" parent="1">
          <mxGeometry x="1340" y="170" width="80" height="30" as="geometry" />
        </mxCell>
        <mxCell id="ZdthaMtyNPpBsi2oZ3e5-314" value="&lt;h2&gt;Уход за лицом&lt;/h2&gt;" style="text;strokeColor=none;align=center;fillColor=none;html=1;verticalAlign=middle;whiteSpace=wrap;rounded=0;" vertex="1" parent="1">
          <mxGeometry x="1260" y="140" width="150" height="30" as="geometry" />
        </mxCell>
        <mxCell id="ZdthaMtyNPpBsi2oZ3e5-315" value="Сыворотка" style="label;whiteSpace=wrap;html=1;align=center;verticalAlign=bottom;spacingLeft=0;spacingBottom=4;imageAlign=center;imageVerticalAlign=top;image=img/clipart/Gear_128x128.png;rounded=1;shadow=1;strokeColor=default;arcSize=13;fontFamily=Helvetica;fontSize=12;fontColor=default;labelBackgroundColor=none;fillColor=default;" vertex="1" parent="1">
          <mxGeometry x="1270" y="215" width="80" height="70" as="geometry" />
        </mxCell>
        <mxCell id="ZdthaMtyNPpBsi2oZ3e5-316" value="Крем" style="label;whiteSpace=wrap;html=1;align=center;verticalAlign=bottom;spacingLeft=0;spacingBottom=4;imageAlign=center;imageVerticalAlign=top;image=img/clipart/Gear_128x128.png;rounded=1;shadow=1;strokeColor=default;arcSize=13;fontFamily=Helvetica;fontSize=12;fontColor=default;labelBackgroundColor=none;fillColor=default;" vertex="1" parent="1">
          <mxGeometry x="1370" y="215" width="80" height="70" as="geometry" />
        </mxCell>
        <mxCell id="ZdthaMtyNPpBsi2oZ3e5-317" value="Гель" style="label;whiteSpace=wrap;html=1;align=center;verticalAlign=bottom;spacingLeft=0;spacingBottom=4;imageAlign=center;imageVerticalAlign=top;image=img/clipart/Gear_128x128.png;rounded=1;shadow=1;strokeColor=default;arcSize=13;fontFamily=Helvetica;fontSize=12;fontColor=default;labelBackgroundColor=none;fillColor=default;" vertex="1" parent="1">
          <mxGeometry x="1270" y="304.5" width="80" height="70" as="geometry" />
        </mxCell>
        <mxCell id="ZdthaMtyNPpBsi2oZ3e5-318" value="Тоник" style="label;whiteSpace=wrap;html=1;align=center;verticalAlign=bottom;spacingLeft=0;spacingBottom=4;imageAlign=center;imageVerticalAlign=top;image=img/clipart/Gear_128x128.png;rounded=1;shadow=1;strokeColor=default;arcSize=13;fontFamily=Helvetica;fontSize=12;fontColor=default;labelBackgroundColor=none;fillColor=default;" vertex="1" parent="1">
          <mxGeometry x="1370" y="304.5" width="80" height="70" as="geometry" />
        </mxCell>
        <mxCell id="ZdthaMtyNPpBsi2oZ3e5-319" value="" style="ellipse;whiteSpace=wrap;html=1;aspect=fixed;strokeWidth=2;perimeterSpacing=1;shadow=1;labelBackgroundColor=none;fillColor=#d5e8d4;strokeColor=#82b366;gradientColor=#97d077;" vertex="1" parent="1">
          <mxGeometry x="1270" y="415" width="10" height="10" as="geometry" />
        </mxCell>
        <mxCell id="ZdthaMtyNPpBsi2oZ3e5-320" value="" style="endArrow=none;html=1;rounded=0;entryX=0.995;entryY=0.833;entryDx=0;entryDy=0;entryPerimeter=0;labelBackgroundColor=none;fontColor=default;" edge="1" parent="1">
          <mxGeometry width="50" height="50" relative="1" as="geometry">
            <mxPoint x="1261" y="405" as="sourcePoint" />
            <mxPoint x="1459" y="405" as="targetPoint" />
          </mxGeometry>
        </mxCell>
        <mxCell id="ZdthaMtyNPpBsi2oZ3e5-321" value="" style="endArrow=none;html=1;rounded=0;shadow=1;endSize=7;startSize=7;jumpSize=7;labelBackgroundColor=none;fontColor=default;fillColor=#60a917;strokeColor=#2D7600;" edge="1" parent="1">
          <mxGeometry width="50" height="50" relative="1" as="geometry">
            <mxPoint x="1280" y="425" as="sourcePoint" />
            <mxPoint x="1290" y="435" as="targetPoint" />
          </mxGeometry>
        </mxCell>
        <mxCell id="ZdthaMtyNPpBsi2oZ3e5-322" value="" style="verticalLabelPosition=bottom;verticalAlign=top;html=1;shape=mxgraph.basic.heart;shadow=1;labelBackgroundColor=none;" vertex="1" parent="1">
          <mxGeometry x="1310" y="415" width="20" height="20" as="geometry" />
        </mxCell>
        <mxCell id="ZdthaMtyNPpBsi2oZ3e5-323" value="" style="verticalLabelPosition=bottom;verticalAlign=top;html=1;shape=mxgraph.flowchart.or;shadow=1;labelBackgroundColor=none;" vertex="1" parent="1">
          <mxGeometry x="1349.5" y="415" width="21" height="20" as="geometry" />
        </mxCell>
        <mxCell id="ZdthaMtyNPpBsi2oZ3e5-325" value="" style="shape=actor;whiteSpace=wrap;html=1;shadow=1;labelBackgroundColor=none;" vertex="1" parent="1">
          <mxGeometry x="1390" y="415" width="20" height="20" as="geometry" />
        </mxCell>
        <mxCell id="ZdthaMtyNPpBsi2oZ3e5-327" value="" style="html=1;shape=mxgraph.basic.isocube;isoAngle=15;shadow=1;labelBackgroundColor=none;" vertex="1" parent="1">
          <mxGeometry x="1430" y="415" width="20" height="20" as="geometry" />
        </mxCell>
        <mxCell id="ZdthaMtyNPpBsi2oZ3e5-329" value="" style="rounded=0;whiteSpace=wrap;html=1;shadow=1;strokeColor=default;align=center;verticalAlign=middle;arcSize=13;fontFamily=Helvetica;fontSize=12;fontColor=default;labelBackgroundColor=none;fillColor=default;" vertex="1" parent="1">
          <mxGeometry x="1187.5" y="-205" width="385" height="200" as="geometry" />
        </mxCell>
        <mxCell id="ZdthaMtyNPpBsi2oZ3e5-331" value="&lt;div style=&quot;line-height: 140%;&quot;&gt;&lt;span style=&quot;font-size: 13px; background-color: initial;&quot;&gt;Поиск по названию подразумевает поиск по всем имеющимся в базе вариациям записи ингридиента по INCI.&lt;/span&gt;&lt;/div&gt;&lt;div style=&quot;font-size: 13px; line-height: 140%;&quot;&gt;&lt;font style=&quot;font-size: 13px;&quot;&gt;Например, поиск по фильтру &quot;Гиалуроновая кислота&quot; будет включать в себя несколько названий INCI (&lt;span style=&quot;background-color: rgb(255, 255, 255); font-family: &amp;quot;Open Sans&amp;quot;, sans-serif;&quot;&gt;Sodium Hyaluronate,&amp;nbsp;&lt;/span&gt;&lt;span style=&quot;background-color: rgb(255, 255, 255); font-family: &amp;quot;Open Sans&amp;quot;, sans-serif;&quot;&gt;Hydrolyzed Hyaluronic Acid,&amp;nbsp;&lt;/span&gt;&lt;span style=&quot;background-color: rgb(255, 255, 255); font-family: &amp;quot;Open Sans&amp;quot;, sans-serif;&quot;&gt;Hydroxypropyltrimonium Hyaluronate,&amp;nbsp;&lt;/span&gt;&lt;span style=&quot;background-color: rgb(255, 255, 255); font-family: &amp;quot;Open Sans&amp;quot;, sans-serif;&quot;&gt;Dimethylsilanol Hyaluronate, Hydrolyzed Sodium Hyaluronate, Potassium Hyaluronate, Hyaluronic Acid, Sodium Hyaluronate Crosspolymer, Sodium Acetylated Hyaluronate, Sodium Hyaluronate Dimethylsilanol, Ascorbyl Propyl Hyaluronate&lt;/span&gt;&lt;span style=&quot;background-color: initial;&quot;&gt;).&lt;/span&gt;&lt;/font&gt;&lt;/div&gt;" style="text;strokeColor=none;align=left;fillColor=none;html=1;verticalAlign=middle;whiteSpace=wrap;rounded=0;fontFamily=Helvetica;fontSize=12;fontColor=default;labelBackgroundColor=none;" vertex="1" parent="1">
          <mxGeometry x="1195" y="-205" width="370" height="195" as="geometry" />
        </mxCell>
        <mxCell id="ZdthaMtyNPpBsi2oZ3e5-337" value="" style="ellipse;whiteSpace=wrap;html=1;rounded=1;shadow=1;strokeColor=#CC0000;align=center;verticalAlign=middle;arcSize=13;fontFamily=Helvetica;fontSize=12;labelBackgroundColor=none;fillColor=none;strokeWidth=4;opacity=40;" vertex="1" parent="1">
          <mxGeometry x="1262.63" y="170" width="40" height="30" as="geometry" />
        </mxCell>
        <mxCell id="ZdthaMtyNPpBsi2oZ3e5-338" style="edgeStyle=orthogonalEdgeStyle;rounded=0;orthogonalLoop=1;jettySize=auto;html=1;entryX=1;entryY=0.5;entryDx=0;entryDy=0;fontFamily=Helvetica;fontSize=12;fontColor=default;labelBackgroundColor=none;" edge="1" parent="1" source="ZdthaMtyNPpBsi2oZ3e5-337" target="ZdthaMtyNPpBsi2oZ3e5-74">
          <mxGeometry relative="1" as="geometry">
            <Array as="points">
              <mxPoint x="1230" y="185" />
              <mxPoint x="1230" y="40" />
            </Array>
          </mxGeometry>
        </mxCell>
        <mxCell id="ZdthaMtyNPpBsi2oZ3e5-350" value="" style="endArrow=none;dashed=1;html=1;rounded=0;fontFamily=Helvetica;fontSize=12;fontColor=default;labelBackgroundColor=none;exitX=0.5;exitY=0;exitDx=0;exitDy=0;entryX=-0.006;entryY=0.165;entryDx=0;entryDy=0;entryPerimeter=0;" edge="1" parent="1" source="ZdthaMtyNPpBsi2oZ3e5-74" target="ZdthaMtyNPpBsi2oZ3e5-329">
          <mxGeometry width="50" height="50" relative="1" as="geometry">
            <mxPoint x="1140" y="-140" as="sourcePoint" />
            <mxPoint x="1190" y="-190" as="targetPoint" />
            <Array as="points">
              <mxPoint x="1050" y="-170" />
            </Array>
          </mxGeometry>
        </mxCell>
      </root>
    </mxGraphModel>
  </diagram>
</mxfile>
